<svg width="44" height="44" viewBox="0 0 44 44" fill="none" xmlns="http://www.w3.org/2000/svg">
<path d="M30.6666 37.8824H12.6274C5.41171 37.8824 3.60779 36.0784 3.60779 28.8627V14.4314C3.60779 7.21569 5.41171 5.41177 12.6274 5.41177H30.6666C37.8823 5.41177 39.6862 7.21569 39.6862 14.4314V28.8627C39.6862 36.0784 37.8823 37.8824 30.6666 37.8824Z" stroke="url(#paint0_linear_3464_2921)" stroke-width="1.5" stroke-linecap="round" stroke-linejoin="round"/>
<path d="M25.2549 14.4314H34.2745" stroke="url(#paint1_linear_3464_2921)" stroke-width="1.5" stroke-linecap="round" stroke-linejoin="round"/>
<path d="M27.0588 21.6471H34.2745" stroke="url(#paint2_linear_3464_2921)" stroke-width="1.5" stroke-linecap="round" stroke-linejoin="round"/>
<path d="M30.6666 28.8627H34.2745" stroke="url(#paint3_linear_3464_2921)" stroke-width="1.5" stroke-linecap="round" stroke-linejoin="round"/>
<path d="M15.3334 20.3663C17.1367 20.3663 18.5985 18.9044 18.5985 17.1012C18.5985 15.2979 17.1367 13.8361 15.3334 13.8361C13.5301 13.8361 12.0683 15.2979 12.0683 17.1012C12.0683 18.9044 13.5301 20.3663 15.3334 20.3663Z" stroke="url(#paint4_linear_3464_2921)" stroke-width="1.5" stroke-linecap="round" stroke-linejoin="round"/>
<path d="M21.647 29.458C21.3945 26.8423 19.32 24.7859 16.7043 24.5514C15.8023 24.4612 14.8823 24.4612 13.9623 24.5514C11.3466 24.8039 9.27211 26.8423 9.01956 29.458" stroke="url(#paint5_linear_3464_2921)" stroke-width="1.5" stroke-linecap="round" stroke-linejoin="round"/>
<defs>
<linearGradient id="paint0_linear_3464_2921" x1="-7.7854" y1="-18.6706" x2="48.2174" y2="-12.467" gradientUnits="userSpaceOnUse">
<stop offset="0.415901" stop-color="#C371C3"/>
<stop offset="1" stop-color="#280F44"/>
</linearGradient>
<linearGradient id="paint1_linear_3464_2921" x1="22.4066" y1="13.6897" x2="30.2427" y2="20.7362" gradientUnits="userSpaceOnUse">
<stop offset="0.415901" stop-color="#C371C3"/>
<stop offset="1" stop-color="#280F44"/>
</linearGradient>
<linearGradient id="paint2_linear_3464_2921" x1="24.7802" y1="20.9054" x2="32.2517" y2="26.2802" gradientUnits="userSpaceOnUse">
<stop offset="0.415901" stop-color="#C371C3"/>
<stop offset="1" stop-color="#280F44"/>
</linearGradient>
<linearGradient id="paint3_linear_3464_2921" x1="29.5273" y1="28.1211" x2="34.5469" y2="29.9266" gradientUnits="userSpaceOnUse">
<stop offset="0.415901" stop-color="#C371C3"/>
<stop offset="1" stop-color="#280F44"/>
</linearGradient>
<linearGradient id="paint4_linear_3464_2921" x1="10.0061" y1="8.99285" x2="20.166" y2="10.0058" gradientUnits="userSpaceOnUse">
<stop offset="0.415901" stop-color="#C371C3"/>
<stop offset="1" stop-color="#280F44"/>
</linearGradient>
<linearGradient id="paint5_linear_3464_2921" x1="5.03195" y1="20.7944" x2="23.6791" y2="25.5137" gradientUnits="userSpaceOnUse">
<stop offset="0.415901" stop-color="#C371C3"/>
<stop offset="1" stop-color="#280F44"/>
</linearGradient>
</defs>
</svg>
