<svg width="29" height="29" viewBox="0 0 29 29" fill="none" xmlns="http://www.w3.org/2000/svg">
<path d="M21.7501 8.6516C21.6776 8.63952 21.5931 8.63952 21.5206 8.6516C19.8531 8.59118 18.5239 7.22576 18.5239 5.5341C18.5239 3.80618 19.9135 2.4166 21.6414 2.4166C23.3693 2.4166 24.7589 3.81826 24.7589 5.5341C24.7468 7.22576 23.4176 8.59118 21.7501 8.6516Z" stroke="url(#paint0_linear_3623_3463)" stroke-width="1.8125" stroke-linecap="round" stroke-linejoin="round"/>
<path d="M20.5055 17.4482C22.1609 17.7261 23.9855 17.4361 25.2664 16.5782C26.9701 15.4423 26.9701 13.5815 25.2664 12.4457C23.9734 11.5878 22.1247 11.2978 20.4693 11.5878" stroke="url(#paint1_linear_3623_3463)" stroke-width="1.8125" stroke-linecap="round" stroke-linejoin="round"/>
<path d="M7.2142 8.65166C7.2867 8.63958 7.37128 8.63958 7.44378 8.65166C9.11128 8.59124 10.4404 7.22583 10.4404 5.53416C10.4404 3.80624 9.05086 2.41666 7.32295 2.41666C5.59503 2.41666 4.20544 3.81833 4.20544 5.53416C4.21753 7.22583 5.5467 8.59124 7.2142 8.65166Z" stroke="url(#paint2_linear_3623_3463)" stroke-width="1.8125" stroke-linecap="round" stroke-linejoin="round"/>
<path d="M8.45835 17.4483C6.80294 17.7262 4.97835 17.4362 3.69752 16.5783C1.99377 15.4424 1.99377 13.5816 3.69752 12.4458C4.99044 11.5879 6.83918 11.2979 8.4946 11.5879" stroke="url(#paint3_linear_3623_3463)" stroke-width="1.8125" stroke-linecap="round" stroke-linejoin="round"/>
<path d="M14.5018 17.678C14.4293 17.6659 14.3447 17.6659 14.2722 17.678C12.6047 17.6176 11.2755 16.2521 11.2755 14.5605C11.2755 12.8325 12.6651 11.443 14.393 11.443C16.1209 11.443 17.5105 12.8446 17.5105 14.5605C17.4984 16.2521 16.1693 17.6296 14.5018 17.678Z" stroke="url(#paint4_linear_3623_3463)" stroke-width="1.8125" stroke-linecap="round" stroke-linejoin="round"/>
<path d="M10.9852 21.4842C9.28143 22.62 9.28143 24.4809 10.9852 25.6167C12.9185 26.9096 16.0843 26.9096 18.0177 25.6167C19.7214 24.4809 19.7214 22.62 18.0177 21.4842C16.0964 20.2034 12.9185 20.2034 10.9852 21.4842Z" stroke="url(#paint5_linear_3623_3463)" stroke-width="1.8125" stroke-linecap="round" stroke-linejoin="round"/>
<defs>
<linearGradient id="paint0_linear_3623_3463" x1="16.5549" y1="-2.2077" x2="26.2556" y2="-1.24059" gradientUnits="userSpaceOnUse">
<stop offset="0.415901" stop-color="#C371C3"/>
<stop offset="1" stop-color="#280F44"/>
</linearGradient>
<linearGradient id="paint1_linear_3623_3463" x1="18.5509" y1="6.97589" x2="28.0023" y2="7.91871" gradientUnits="userSpaceOnUse">
<stop offset="0.415901" stop-color="#C371C3"/>
<stop offset="1" stop-color="#280F44"/>
</linearGradient>
<linearGradient id="paint2_linear_3623_3463" x1="2.2365" y1="-2.20764" x2="11.9371" y2="-1.24052" gradientUnits="userSpaceOnUse">
<stop offset="0.415901" stop-color="#C371C3"/>
<stop offset="1" stop-color="#280F44"/>
</linearGradient>
<linearGradient id="paint3_linear_3623_3463" x1="0.501321" y1="6.97598" x2="9.95274" y2="7.9188" gradientUnits="userSpaceOnUse">
<stop offset="0.415901" stop-color="#C371C3"/>
<stop offset="1" stop-color="#280F44"/>
</linearGradient>
<linearGradient id="paint4_linear_3623_3463" x1="9.30657" y1="6.81867" x2="19.0072" y2="7.78578" gradientUnits="userSpaceOnUse">
<stop offset="0.415901" stop-color="#C371C3"/>
<stop offset="1" stop-color="#280F44"/>
</linearGradient>
<linearGradient id="paint5_linear_3623_3463" x1="6.67954" y1="16.027" x2="21.3799" y2="18.3448" gradientUnits="userSpaceOnUse">
<stop offset="0.415901" stop-color="#C371C3"/>
<stop offset="1" stop-color="#280F44"/>
</linearGradient>
</defs>
</svg>
